ffmpeg started on 2025-06-27 at 11:53:50
Report written to "D:\Convert\FFMetrics\reports\ssim_report-6.txt"
Log level: 32
Command line:
ffmpeg -hide_banner -nostdin -i "G:\\\xc0\xed\xe8\xec\xe5\\[\xd2\xee\xef]\\\xc2\xee\xe9\xed\xe0 \xcc\xe0\xe3\xee\xe2\\Bonus\\Magical Warfare - OP_HEVC.mkv" -i "G:\\\xc0\xed\xe8\xec\xe5\\[\xd2\xee\xef]\\\xc2\xee\xe9\xed\xe0 \xcc\xe0\xe3\xee\xe2\\Bonus\\Magical Warfare - OP.mp4" -lavfi "[0:v]settb=AVTB,setpts=PTS-STARTPTS,format=pix_fmts=yuv420p10,fps=24000/1001,scale=1920:1080:flags=bicubic[main];[1:v]settb=AVTB,setpts=PTS-STARTPTS,format=pix_fmts=yuv420p,fps=24000/1001,scale=1920:1080:flags=bicubic[ref];[main][ref]ssim=eof_action=endall:stats_file='D\\:/Convert/FFMetrics/logs/ssim_logfile-6.txt'" -f null -
Input #0, matroska,webm, from 'G:\Аниме\[Топ]\Война Магов\Bonus\Magical Warfare - OP_HEVC.mkv':
  Metadata:
    COMPATIBLE_BRANDS: isomiso2avc1mp41
    MAJOR_BRAND     : isom
    MINOR_VERSION   : 512
    ENCODER         : Lavf61.7.100
  Duration: 00:01:32.13, start: -0.021000, bitrate: 2353 kb/s
  Stream #0:0: Video: hevc (Main 10), yuv420p10le(tv, bt709, progressive), 1920x1080 [SAR 1:1 DAR 16:9], 23.98 fps, 23.98 tbr, 1k tbn (default)
      Metadata:
        HANDLER_NAME    : VideoHandler
        VENDOR_ID       : [0][0][0][0]
        ENCODER         : Lavc61.19.100 libx265
        BPS             : 2167417
        DURATION        : 00:01:31.883708333
        NUMBER_OF_FRAMES: 2203
        NUMBER_OF_BYTES : 24893599
        _STATISTICS_WRITING_APP: mkvpropedit v66.0.0 ('Josie') 64-bit
        _STATISTICS_WRITING_DATE_UTC: 2025-06-27 08:09:34
        _STATISTICS_TAGS: BPS DURATION NUMBER_OF_FRAMES NUMBER_OF_BYTES
  Stream #0:1(jpn): Audio: aac (LC), 48000 Hz, stereo, fltp (default)
      Metadata:
        HANDLER_NAME    : SoundHandler
        VENDOR_ID       : [0][0][0][0]
        ENCODER         : Lavc61.19.100 aac
        BPS             : 187741
        DURATION        : 00:01:32.116000000
        NUMBER_OF_FRAMES: 4319
        NUMBER_OF_BYTES : 2161746
        _STATISTICS_WRITING_APP: mkvpropedit v66.0.0 ('Josie') 64-bit
        _STATISTICS_WRITING_DATE_UTC: 2025-06-27 08:09:34
        _STATISTICS_TAGS: BPS DURATION NUMBER_OF_FRAMES NUMBER_OF_BYTES
Input #1, mov,mp4,m4a,3gp,3g2,mj2, from 'G:\Аниме\[Топ]\Война Магов\Bonus\Magical Warfare - OP.mp4':
  Metadata:
    major_brand     : isom
    minor_version   : 512
    compatible_brands: isomiso2avc1mp41
    encoder         : Lavf57.14.100
  Duration: 00:01:32.10, start: 0.000000, bitrate: 3600 kb/s
  Stream #1:0[0x1](und): Video: h264 (High) (avc1 / 0x31637661), yuv420p(progressive), 1920x1080 [SAR 1:1 DAR 16:9], 3475 kb/s, 23.98 fps, 23.98 tbr, 24k tbn (default)
      Metadata:
        handler_name    : VideoHandler
        vendor_id       : [0][0][0][0]
  Stream #1:1[0x2](jpn): Audio: aac (LC) (mp4a / 0x6134706D), 48000 Hz, stereo, fltp, 128 kb/s (default)
      Metadata:
        handler_name    : SoundHandler
        vendor_id       : [0][0][0][0]
Stream mapping:
  Stream #0:0 (hevc) -> settb:default
  Stream #1:0 (h264) -> settb:default
  ssim:default -> Stream #0:0 (wrapped_avframe)
  Stream #0:1 -> #0:1 (aac (native) -> pcm_s16le (native))
[swscaler @ 00000212294bd340] No accelerated colorspace conversion found from yuv420p to bgr48le.
[swscaler @ 000002122953e300] No accelerated colorspace conversion found from yuv420p to bgr48le.
[swscaler @ 00000212296f0180] No accelerated colorspace conversion found from yuv420p to bgr48le.
[swscaler @ 00000212298715c0] No accelerated colorspace conversion found from yuv420p to bgr48le.
[swscaler @ 0000021229910040] No accelerated colorspace conversion found from yuv420p to bgr48le.
[swscaler @ 000002122992a840] No accelerated colorspace conversion found from yuv420p to bgr48le.
[swscaler @ 0000021229ad2740] No accelerated colorspace conversion found from yuv420p to bgr48le.
[swscaler @ 0000021229c888c0] No accelerated colorspace conversion found from yuv420p to bgr48le.
[swscaler @ 0000021229d77040] No accelerated colorspace conversion found from yuv420p to bgr48le.
[swscaler @ 0000021229e18c80] No accelerated colorspace conversion found from yuv420p to bgr48le.
[swscaler @ 0000021222dcc0c0] No accelerated colorspace conversion found from yuv420p to bgr48le.
[swscaler @ 000002122a0cf040] No accelerated colorspace conversion found from yuv420p to bgr48le.
[swscaler @ 0000021232f351c0] No accelerated colorspace conversion found from yuv420p to bgr48le.
[swscaler @ 000002123309e000] No accelerated colorspace conversion found from yuv420p to bgr48le.
[swscaler @ 0000021233212040] No accelerated colorspace conversion found from yuv420p to bgr48le.
[swscaler @ 0000021233482d00] No accelerated colorspace conversion found from yuv420p to bgr48le.
Output #0, null, to 'pipe:':
  Metadata:
    COMPATIBLE_BRANDS: isomiso2avc1mp41
    MAJOR_BRAND     : isom
    MINOR_VERSION   : 512
    encoder         : Lavf61.7.100
  Stream #0:0: Video: wrapped_avframe, yuv420p10le(tv, bt709, progressive), 1920x1080 [SAR 1:1 DAR 16:9], q=2-31, 200 kb/s, 23.98 fps, 23.98 tbn
      Metadata:
        encoder         : Lavc61.19.100 wrapped_avframe
  Stream #0:1(jpn): Audio: pcm_s16le, 48000 Hz, stereo, s16, 1536 kb/s (default)
      Metadata:
        HANDLER_NAME    : SoundHandler
        VENDOR_ID       : [0][0][0][0]
        _STATISTICS_TAGS: BPS DURATION NUMBER_OF_FRAMES NUMBER_OF_BYTES
        BPS             : 187741
        DURATION        : 00:01:32.116000000
        NUMBER_OF_FRAMES: 4319
        NUMBER_OF_BYTES : 2161746
        _STATISTICS_WRITING_APP: mkvpropedit v66.0.0 ('Josie') 64-bit
        _STATISTICS_WRITING_DATE_UTC: 2025-06-27 08:09:34
        encoder         : Lavc61.19.100 pcm_s16le
frame=   27 fps=0.0 q=-0.0 size=N/A time=00:00:01.12 bitrate=N/A speed=2.18x    frame=   62 fps= 60 q=-0.0 size=N/A time=00:00:02.58 bitrate=N/A speed=2.52x    frame=   98 fps= 63 q=-0.0 size=N/A time=00:00:04.08 bitrate=N/A speed=2.64x    frame=  133 fps= 65 q=-0.0 size=N/A time=00:00:05.54 bitrate=N/A speed=2.69x    frame=  163 fps= 63 q=-0.0 size=N/A time=00:00:06.79 bitrate=N/A speed=2.64x    frame=  199 fps= 64 q=-0.0 size=N/A time=00:00:08.29 bitrate=N/A speed=2.68x    frame=  233 fps= 65 q=-0.0 size=N/A time=00:00:09.71 bitrate=N/A speed=2.69x    frame=  276 fps= 67 q=-0.0 size=N/A time=00:00:11.51 bitrate=N/A speed=2.79x    frame=  298 fps= 64 q=-0.0 size=N/A time=00:00:12.42 bitrate=N/A speed=2.68x    frame=  329 fps= 64 q=-0.0 size=N/A time=00:00:13.72 bitrate=N/A speed=2.66x    frame=  374 fps= 66 q=-0.0 size=N/A time=00:00:15.59 bitrate=N/A speed=2.75x    frame=  405 fps= 65 q=-0.0 size=N/A time=00:00:16.89 bitrate=N/A speed=2.73x    frame=  437 fps= 65 q=-0.0 size=N/A time=00:00:18.22 bitrate=N/A speed=2.72x    frame=  472 fps= 65 q=-0.0 size=N/A time=00:00:19.68 bitrate=N/A speed=2.73x    frame=  500 fps= 65 q=-0.0 size=N/A time=00:00:20.85 bitrate=N/A speed= 2.7x    frame=  543 fps= 66 q=-0.0 size=N/A time=00:00:22.64 bitrate=N/A speed=2.74x    frame=  578 fps= 66 q=-0.0 size=N/A time=00:00:24.10 bitrate=N/A speed=2.75x    frame=  614 fps= 66 q=-0.0 size=N/A time=00:00:25.60 bitrate=N/A speed=2.76x    frame=  647 fps= 66 q=-0.0 size=N/A time=00:00:26.98 bitrate=N/A speed=2.75x    frame=  675 fps= 65 q=-0.0 size=N/A time=00:00:28.15 bitrate=N/A speed=2.73x    frame=  706 fps= 65 q=-0.0 size=N/A time=00:00:29.44 bitrate=N/A speed=2.72x    frame=  736 fps= 65 q=-0.0 size=N/A time=00:00:30.69 bitrate=N/A speed=2.71x    frame=  772 fps= 65 q=-0.0 size=N/A time=00:00:32.19 bitrate=N/A speed=2.71x    frame=  811 fps= 66 q=-0.0 size=N/A time=00:00:33.82 bitrate=N/A speed=2.73x    frame=  845 fps= 66 q=-0.0 size=N/A time=00:00:35.24 bitrate=N/A speed=2.73x    frame=  877 fps= 65 q=-0.0 size=N/A time=00:00:36.57 bitrate=N/A speed=2.73x    frame=  911 fps= 65 q=-0.0 size=N/A time=00:00:37.99 bitrate=N/A speed=2.73x    frame=  951 fps= 66 q=-0.0 size=N/A time=00:00:39.66 bitrate=N/A speed=2.75x    frame=  985 fps= 66 q=-0.0 size=N/A time=00:00:41.08 bitrate=N/A speed=2.75x    frame= 1018 fps= 66 q=-0.0 size=N/A time=00:00:42.45 bitrate=N/A speed=2.75x    frame= 1054 fps= 66 q=-0.0 size=N/A time=00:00:43.96 bitrate=N/A speed=2.75x    frame= 1080 fps= 65 q=-0.0 size=N/A time=00:00:45.04 bitrate=N/A speed=2.73x    frame= 1111 fps= 65 q=-0.0 size=N/A time=00:00:46.33 bitrate=N/A speed=2.72x    frame= 1154 fps= 66 q=-0.0 size=N/A time=00:00:48.13 bitrate=N/A speed=2.74x    frame= 1192 fps= 66 q=-0.0 size=N/A time=00:00:49.71 bitrate=N/A speed=2.76x    frame= 1226 fps= 66 q=-0.0 size=N/A time=00:00:51.13 bitrate=N/A speed=2.75x    frame= 1262 fps= 66 q=-0.0 size=N/A time=00:00:52.63 bitrate=N/A speed=2.76x    frame= 1297 fps= 66 q=-0.0 size=N/A time=00:00:54.09 bitrate=N/A speed=2.76x    frame= 1331 fps= 66 q=-0.0 size=N/A time=00:00:55.51 bitrate=N/A speed=2.76x    frame= 1365 fps= 66 q=-0.0 size=N/A time=00:00:56.93 bitrate=N/A speed=2.76x    frame= 1401 fps= 66 q=-0.0 size=N/A time=00:00:58.43 bitrate=N/A speed=2.76x    frame= 1435 fps= 66 q=-0.0 size=N/A time=00:00:59.85 bitrate=N/A speed=2.76x    frame= 1471 fps= 66 q=-0.0 size=N/A time=00:01:01.35 bitrate=N/A speed=2.77x    frame= 1505 fps= 66 q=-0.0 size=N/A time=00:01:02.77 bitrate=N/A speed=2.77x    frame= 1539 fps= 66 q=-0.0 size=N/A time=00:01:04.18 bitrate=N/A speed=2.77x    frame= 1576 fps= 66 q=-0.0 size=N/A time=00:01:05.73 bitrate=N/A speed=2.77x    frame= 1610 fps= 66 q=-0.0 size=N/A time=00:01:07.15 bitrate=N/A speed=2.77x    frame= 1638 fps= 66 q=-0.0 size=N/A time=00:01:08.31 bitrate=N/A speed=2.76x    frame= 1674 fps= 66 q=-0.0 size=N/A time=00:01:09.81 bitrate=N/A speed=2.76x    frame= 1710 fps= 66 q=-0.0 size=N/A time=00:01:11.32 bitrate=N/A speed=2.77x    frame= 1748 fps= 66 q=-0.0 size=N/A time=00:01:12.90 bitrate=N/A speed=2.77x    frame= 1783 fps= 66 q=-0.0 size=N/A time=00:01:14.36 bitrate=N/A speed=2.77x    frame= 1818 fps= 67 q=-0.0 size=N/A time=00:01:15.82 bitrate=N/A speed=2.77x    frame= 1853 fps= 67 q=-0.0 size=N/A time=00:01:17.28 bitrate=N/A speed=2.78x    frame= 1888 fps= 67 q=-0.0 size=N/A time=00:01:18.74 bitrate=N/A speed=2.78x    frame= 1917 fps= 66 q=-0.0 size=N/A time=00:01:19.95 bitrate=N/A speed=2.77x    frame= 1953 fps= 66 q=-0.0 size=N/A time=00:01:21.45 bitrate=N/A speed=2.77x    frame= 1993 fps= 67 q=-0.0 size=N/A time=00:01:23.12 bitrate=N/A speed=2.78x    frame= 2027 fps= 67 q=-0.0 size=N/A time=00:01:24.54 bitrate=N/A speed=2.78x    frame= 2063 fps= 67 q=-0.0 size=N/A time=00:01:26.04 bitrate=N/A speed=2.78x    frame= 2097 fps= 67 q=-0.0 size=N/A time=00:01:27.46 bitrate=N/A speed=2.78x    frame= 2130 fps= 67 q=-0.0 size=N/A time=00:01:28.83 bitrate=N/A speed=2.78x    frame= 2168 fps= 67 q=-0.0 size=N/A time=00:01:30.42 bitrate=N/A speed=2.78x    [Parsed_ssim_10 @ 000002122826d800] SSIM Y:0.993036 (21.571588) U:0.993290 (21.732517) V:0.993491 (21.864720) All:0.993154 (21.645792)
[out#0/null @ 0000021211fc0e40] video:947KiB audio:17276KiB subtitle:0KiB other streams:0KiB global headers:0KiB muxing overhead: unknown
frame= 2203 fps= 67 q=-0.0 Lsize=N/A time=00:01:31.88 bitrate=N/A speed=2.79x    
